<svg xmlns="http://www.w3.org/2000/svg"
  aria-hidden="true"
  preserveAspectRatio="xMidYmid meet"
  viewBox="0 0 16 16">
  <defs>
    <radialGradient
      id="a"
      r="69.6%"
      cx="9.6%"
      cy="9.6%"
      fx="9.6%"
      fy="9.6%"
      gradientUnits="objectBoundingBox">
      <stop
        offset="0%"
        stop-color="var(--bs-primary-color-variant)" />
      <stop
        offset="100%"
        stop-color="var(--bs-primary-color)" />
    </radialGradient>
    <radialGradient
      id="b"
      href="#a">
      <stop
        offset="0%"
        stop-color="var(--bs-alternate-color-variant)" />
      <stop
        offset="100%"
        stop-color="var(--bs-alternate-color)" />
    </radialGradient>
    <g id="logo-path">
      <path
        fill="url(#a)"
        d="M 7.722656 8.757812 L 7.0625 8.757812 C 6.5625 8.785156 6.269531 8.871094 6.234375 9.730469 L 6.234375 11.925781 C 4.070312 11.925781 4.070312 11.925781 4.070312 10.945312 L 4.070312 5.066406 C 4.070312 4.085938 4.070312 4.085938 6.234375 4.085938 L 6.234375 6.277344 C 6.234375 7.082031 6.5625 7.222656 7.0625 7.25 L 8.9375 7.25 C 9.441406 7.210938 9.765625 7.082031 9.765625 6.28125 L 9.765625 4.085938 C 11.9375 4.085938 11.929688 4.085938 11.929688 5.066406 L 11.929688 10.945312 C 11.929688 11.925781 11.9375 11.925781 9.765625 11.925781 L 9.765625 9.730469 C 9.773438 8.871094 9.441406 8.789062 8.9375 8.757812 Z M 7.722656 8.757812 " />
      <path
        fill="url(#b)"
        d="M 8 5.679688 C 7.722656 5.679688 7.722656 5.261719 8.011719 5.261719 L 9.375 5.261719 L 9.375 4.695312 C 9.375 4.5 9.375 4.070312 8.980469 4.070312 L 7.121094 4.085938 C 6.628906 4.085938 6.628906 4.476562 6.628906 4.671875 L 6.628906 6.242188 C 6.628906 6.4375 6.628906 6.863281 7.121094 6.863281 L 8.980469 6.871094 C 9.375 6.871094 9.375 6.445312 9.375 6.25 L 9.375 5.679688 Z M 8.003906 10.738281 C 7.726562 10.738281 7.726562 10.320312 8.015625 10.320312 L 9.375 10.320312 L 9.375 9.75 C 9.375 9.554688 9.375 9.128906 8.984375 9.128906 L 7.125 9.144531 C 6.632812 9.144531 6.632812 9.535156 6.632812 9.730469 L 6.632812 11.300781 C 6.632812 11.496094 6.632812 11.921875 7.125 11.921875 L 8.984375 11.929688 C 9.378906 11.929688 9.378906 11.503906 9.378906 11.304688 L 9.378906 10.738281 Z M 8.003906 10.738281 " />
    </g>
  </defs>
  <g
    filter="brightness(132%) blur(3.2px)"
    opacity="0.69">
    <use href="#logo-path">
    </use>
  </g>
  <g filter="contrast(200%)">
    <use href="#logo-path">
    </use>
  </g>
</svg>